%TF.GenerationSoftware,KiCad,Pcbnew,7.0.9-7.0.9~ubuntu22.04.1*%
%TF.CreationDate,2023-11-20T10:22:54+01:00*%
%TF.ProjectId,blank,626c616e-6b2e-46b6-9963-61645f706362,rev?*%
%TF.SameCoordinates,Original*%
%TF.FileFunction,Legend,Top*%
%TF.FilePolarity,Positive*%
%FSLAX46Y46*%
G04 Gerber Fmt 4.6, Leading zero omitted, Abs format (unit mm)*
G04 Created by KiCad (PCBNEW 7.0.9-7.0.9~ubuntu22.04.1) date 2023-11-20 10:22:54*
%MOMM*%
%LPD*%
G01*
G04 APERTURE LIST*
%ADD10C,0.150000*%
%TA.AperFunction,Profile*%
%ADD11C,0.120000*%
%TD*%
G04 APERTURE END LIST*
D10*
X20482666Y-35074927D02*
X20149333Y-34598736D01*
X19911238Y-35074927D02*
X19911238Y-34074927D01*
X19911238Y-34074927D02*
X20292190Y-34074927D01*
X20292190Y-34074927D02*
X20387428Y-34122546D01*
X20387428Y-34122546D02*
X20435047Y-34170165D01*
X20435047Y-34170165D02*
X20482666Y-34265403D01*
X20482666Y-34265403D02*
X20482666Y-34408260D01*
X20482666Y-34408260D02*
X20435047Y-34503498D01*
X20435047Y-34503498D02*
X20387428Y-34551117D01*
X20387428Y-34551117D02*
X20292190Y-34598736D01*
X20292190Y-34598736D02*
X19911238Y-34598736D01*
X20911238Y-34551117D02*
X21244571Y-34551117D01*
X21387428Y-35074927D02*
X20911238Y-35074927D01*
X20911238Y-35074927D02*
X20911238Y-34074927D01*
X20911238Y-34074927D02*
X21387428Y-34074927D01*
X22149333Y-34551117D02*
X21816000Y-34551117D01*
X21816000Y-35074927D02*
X21816000Y-34074927D01*
X21816000Y-34074927D02*
X22292190Y-34074927D01*
X22816000Y-34074927D02*
X22816000Y-34313022D01*
X22577905Y-34217784D02*
X22816000Y-34313022D01*
X22816000Y-34313022D02*
X23054095Y-34217784D01*
X22673143Y-34503498D02*
X22816000Y-34313022D01*
X22816000Y-34313022D02*
X22958857Y-34503498D01*
X23577905Y-34074927D02*
X23577905Y-34313022D01*
X23339810Y-34217784D02*
X23577905Y-34313022D01*
X23577905Y-34313022D02*
X23816000Y-34217784D01*
X23435048Y-34503498D02*
X23577905Y-34313022D01*
X23577905Y-34313022D02*
X23720762Y-34503498D01*
D11*
%TO.C,REF\u002A\u002A*%
X26545000Y-27095000D02*
X77345000Y-27095000D01*
X77345000Y-27095000D02*
X77345000Y-155595000D01*
X77345000Y-155595000D02*
X26545000Y-155595000D01*
X26545000Y-155595000D02*
X26545000Y-27095000D01*
X50685000Y-60588000D02*
X53893000Y-60588000D01*
X53893000Y-60588000D02*
X53893000Y-73390000D01*
X53893000Y-73390000D02*
X50685000Y-73390000D01*
X50685000Y-73390000D02*
X50685000Y-60588000D01*
%TD*%
M02*
