<svg xmlns="http://www.w3.org/2000/svg" width="15.6mm" height="16.200000000000003mm" viewBox="-7.8 -6.4 15.6 16.200000000000003">
<g stroke="black" stroke-width="0.1" fill="none">
<line x1="-4.1" y1="-5.4" x2="4.1" y2="-5.4"/>
<line x1="4.65" y1="-4.85" x2="4.65" y2="5.35"/>
<line x1="4.1" y1="5.9" x2="-4.1" y2="5.9"/>
<line x1="-4.65" y1="5.35" x2="-4.65" y2="-4.85"/>
<line x1="-4.75" y1="-0.9" x2="-5.5" y2="-0.9"/>
<line x1="-5.5" y1="-0.9" x2="-5.5" y2="0.9"/>
<line x1="-5.5" y1="0.9" x2="-4.75" y2="0.9"/>
<line x1="4.75" y1="0.9" x2="5.5" y2="0.9"/>
<line x1="5.5" y1="0.9" x2="5.5" y2="-0.9"/>
<line x1="5.5" y1="-0.9" x2="4.75" y2="-0.9"/>
<line x1="-4.1" y1="-4.85" x2="-4.65" y2="-4.85"/>
<line x1="-4.1" y1="-5.4" x2="-4.1" y2="-4.85"/>
<line x1="-4.1" y1="5.35" x2="-4.1" y2="5.9"/>
<line x1="-4.65" y1="5.35" x2="-4.1" y2="5.35"/>
<line x1="4.1" y1="5.35" x2="4.65" y2="5.35"/>
<line x1="4.1" y1="5.9" x2="4.1" y2="5.35"/>
<line x1="4.1" y1="-4.85" x2="4.1" y2="-5.4"/>
<line x1="4.65" y1="-4.85" x2="4.1" y2="-4.85"/>
<line x1="-4.65" y1="-2.65" x2="-4.65" y2="-4.85"/>
<line x1="-4.65" y1="5.35" x2="-4.65" y2="2.15"/>
<line x1="4.65" y1="-4.85" x2="4.65" y2="-2.65"/>
<line x1="4.65" y1="2.15" x2="4.65" y2="5.35"/>
<circle cx="0.0" cy="0.0" r="1.397"/>
<circle cx="0.0" cy="0.0" r="1.016"/>
<circle cx="0.0" cy="7.0" r="1.8"/>
<circle cx="-2.5" cy="7.0" r="1.8"/>
<circle cx="2.5" cy="7.0" r="1.7999999999999998"/>
<circle cx="-4.5" cy="0.0" r="2.3"/>
<circle cx="4.5" cy="0.0" r="2.3"/>
</g>
<g stroke="red" stroke-width="0.15" fill="none"><circle cx="0" cy="0" r="3.175"/></g>
</svg>
