<svg xmlns="http://www.w3.org/2000/svg" width="11.0mm" height="14.7mm" viewBox="-5.5 -7.0 11.0 14.7">
<g stroke="black" stroke-width="0.1" fill="none">
<line x1="-4.5" y1="-6.0" x2="-1.5" y2="-6.0"/>
<line x1="-1.5" y1="-6.0" x2="1.5" y2="-6.0"/>
<line x1="1.5" y1="-6.0" x2="4.5" y2="-6.0"/>
<line x1="-4.5" y1="-6.0" x2="-4.5" y2="4.5"/>
<line x1="-4.5" y1="4.5" x2="0.2" y2="4.5"/>
<line x1="0.2" y1="4.5" x2="4.5" y2="4.5"/>
<line x1="4.5" y1="4.5" x2="4.5" y2="-6.0"/>
<line x1="-1.5" y1="-6.0" x2="-1.5" y2="-4.0"/>
<line x1="-1.5" y1="-4.0" x2="1.5" y2="-4.0"/>
<line x1="1.5" y1="-4.0" x2="1.5" y2="-6.0"/>
<line x1="-0.2" y1="4.6" x2="-0.2" y2="6.7"/>
<line x1="-0.2" y1="6.7" x2="0.2" y2="6.7"/>
<line x1="0.2" y1="6.7" x2="0.2" y2="4.5"/>
<circle cx="0.0" cy="0.0" r="3.162275"/>
<circle cx="0.0" cy="0.0" r="2.690721"/>
</g>
<g stroke="red" stroke-width="0.15" fill="none"><circle cx="0" cy="0" r="3.15"/></g>
</svg>
