<svg xmlns="http://www.w3.org/2000/svg" width="12.0184mm" height="10.0372mm" viewBox="-6.0092 -5.0186 12.0184 10.0372">
<g stroke="black" stroke-width="0.1" fill="none">
<line x1="3.048" y1="-1.016" x2="3.048" y2="-2.54"/>
<line x1="3.048" y1="-2.54" x2="2.54" y2="-3.048"/>
<line x1="2.54" y1="3.048" x2="3.048" y2="2.54"/>
<line x1="3.048" y1="2.54" x2="3.048" y2="1.016"/>
<line x1="-2.54" y1="-3.048" x2="-3.048" y2="-2.54"/>
<line x1="-3.048" y1="-2.54" x2="-3.048" y2="-1.016"/>
<line x1="-2.54" y1="3.048" x2="-3.048" y2="2.54"/>
<line x1="-3.048" y1="2.54" x2="-3.048" y2="1.016"/>
<line x1="2.54" y1="3.048" x2="2.159" y2="3.048"/>
<line x1="-2.54" y1="3.048" x2="-2.159" y2="3.048"/>
<line x1="-2.54" y1="-3.048" x2="-2.159" y2="-3.048"/>
<line x1="2.54" y1="-3.048" x2="2.159" y2="-3.048"/>
<line x1="2.159" y1="-3.048" x2="-2.159" y2="-3.048"/>
<line x1="-2.159" y1="3.048" x2="2.159" y2="3.048"/>
<line x1="3.048" y1="-0.998" x2="3.048" y2="1.016"/>
<line x1="-3.048" y1="-1.028" x2="-3.048" y2="1.016"/>
<line x1="-2.54" y1="-1.27" x2="-2.54" y2="-0.508"/>
<line x1="-2.54" y1="0.508" x2="-2.54" y2="1.27"/>
<line x1="-2.54" y1="-0.508" x2="-2.159" y2="0.381"/>
<circle cx="0.0" cy="0.0" r="1.778"/>
<circle cx="-3.2512" cy="-2.2606" r="1.7579999999999998"/>
<circle cx="-3.2512" cy="2.2606" r="1.7579999999999998"/>
<circle cx="3.2512" cy="2.2606" r="1.758"/>
<circle cx="3.2512" cy="-2.2606" r="1.758"/>
</g>
<g stroke="red" stroke-width="0.15" fill="none"><circle cx="0" cy="0" r="2.75"/></g>
</svg>
