<svg xmlns="http://www.w3.org/2000/svg" width="69.282" height="40"><rect width="100%" height="100%" fill="#2b2b31"/><path fill="none" stroke="#ecc94b" d="M34.641-20v80m34.64-40L0-20m69.282 80L0 20m69.282 0L0 60m69.282-80L0 20m69.282-40v80M0-20v80m34.64-20 11.547-20m11.547 20 11.547 20m-34.64-20h23.094m11.547-20L57.735 40M46.188 20 34.641 40l11.547 20h23.094L80.83 40 69.282 20zM34.641 40l11.547-20m11.547 20 11.547 20M34.641 40h23.094m11.547-20L57.735 40M46.188 20 34.641 40l11.547 20h23.094L80.83 40 69.282 20zM34.641 0l11.547-20M57.735 0l11.547 20M34.642 0h23.093m11.547-20L57.735 0M46.188-20 34.641 0l11.547 20h23.094L80.83 0 69.282-20zM34.641 40 23.094 20M11.547 40 0 60m34.64-20H11.548M0 20l11.547 20m11.547-20 11.547 20-11.547 20H0l-11.547-20L0 20zM34.641 0 23.094-20M11.547 0 0 20M34.64 0H11.548M0-20 11.547 0m11.547-20L34.641 0 23.094 20H0L-11.547 0 0-20z"/></svg>