<svg xmlns="http://www.w3.org/2000/svg" width="37" height="29.25"><rect width="100%" height="100%" fill="#2b2b31"/><path fill="none" stroke="#ecc94b" d="M9.07 0A9.07 9.07 0 1 1-9.07 0 9.07 9.07 0 0 1 9.07 0Zm5.43 0a14.5 14.5 0 1 1-29 0 14.5 14.5 0 0 1 29 0zm13.07 14.63a9.07 9.07 0 1 1-18.14 0 9.07 9.07 0 0 1 18.14 0zm5.43 0a14.5 14.5 0 1 1-29 0 14.5 14.5 0 0 1 29 0zM46.07 0a9.07 9.07 0 1 1-18.14 0 9.07 9.07 0 0 1 18.14 0Zm-37 29.25a9.07 9.07 0 1 1-18.14 0 9.07 9.07 0 0 1 18.14 0zM51.5 0a14.5 14.5 0 1 1-29 0 14.5 14.5 0 0 1 29 0zm-5.43 29.25a9.07 9.07 0 1 1-18.14 0 9.07 9.07 0 0 1 18.14 0zm-31.57 0a14.5 14.5 0 1 1-29 0 14.5 14.5 0 0 1 29 0zm37 0a14.5 14.5 0 1 1-29 0 14.5 14.5 0 0 1 29 0z"/></svg>